<?xml version="1.0" encoding="UTF-8"?><svg xmlns="http://www.w3.org/2000/svg" xmlns:xlink="http://www.w3.org/1999/xlink" height="132.3" preserveAspectRatio="xMidYMid meet" version="1.0" viewBox="66.1 66.1 132.3 132.3" width="132.3" zoomAndPan="magnify"><g id="change1_1"><circle cx="132.292" cy="132.292" fill="#fac832" paint-order="fill markers stroke" r="66.146"/></g><g id="change2_1"><path d="m 93.262919,131.21747 c 0,6.69741 6.51516,13.71422 14.552041,13.71422 8.03689,0 14.55209,-7.01681 14.55209,-13.71422 0.0461,-1.14419 -0.51155,-1.74257 -0.83939,-1.38174 -0.19982,0.22004 -0.40937,0.43522 -0.62833,0.64518 -0.21909,0.20992 -0.44747,0.41451 -0.68477,0.61344 -0.2373,0.19882 -0.48339,0.39187 -0.73786,0.57885 -0.25437,0.18707 -0.51699,0.36796 -0.78745,0.5424 -0.27061,0.1745 -0.54892,0.34243 -0.83448,0.50354 -0.28549,0.16111 -0.57808,0.3153 -0.87729,0.46233 -0.29914,0.14706 -0.60476,0.28688 -0.91634,0.41923 -0.31168,0.13218 -0.62917,0.25683 -0.95194,0.37374 -0.32272,0.11712 -0.65057,0.22645 -0.98302,0.3278 -0.33241,0.10124 -0.66924,0.19445 -1.00994,0.27949 -0.34072,0.085 -0.68513,0.16178 -1.03268,0.23021 -0.34764,0.0684 -0.69823,0.12846 -1.05121,0.18001 -0.35295,0.0516 -0.7081,0.0948 -1.06488,0.12932 -0.35674,0.0347 -0.71493,0.0608 -1.07399,0.0782 -0.35903,0.0172 -0.71873,0.0257 -1.07852,0.0256 -0.35979,1.2e-4 -0.71949,-0.008 -1.07852,-0.0256 -0.35918,-0.0174 -0.71749,-0.0435 -1.07435,-0.0782 -0.35665,-0.0346 -0.71167,-0.0777 -1.06449,-0.12932 -0.35299,-0.0516 -0.70359,-0.11159 -1.05124,-0.18001 -0.34755,-0.0684 -0.69195,-0.14521 -1.03267,-0.23021 -0.3407,-0.085 -0.67752,-0.17825 -1.00993,-0.27949 -0.33258,-0.10134 -0.66056,-0.21067 -0.98341,-0.3278 -0.32265,-0.11692 -0.640001,-0.24156 -0.951561,-0.37374 -0.31171,-0.13235 -0.61744,-0.27217 -0.91671,-0.41923 -0.29907,-0.14704 -0.59153,-0.30123 -0.8769,-0.46233 -0.28555,-0.16111 -0.56386,-0.32904 -0.83447,-0.50354 -0.27046,-0.17444 -0.53309,-0.35533 -0.78746,-0.5424 -0.25447,-0.18698 -0.50055,-0.38003 -0.73784,-0.57885 -0.2373,-0.19893 -0.46568,-0.40352 -0.68478,-0.61344 -0.21909,-0.20996 -0.42877,-0.42513 -0.62871,-0.64518 -0.32784,-0.36084 -0.82954,0.23669 -0.839,1.38174 z" fill="#4d4d4d"/></g><g id="change2_2"><path d="m 142.21356,131.21747 c 0,6.69741 6.51518,13.71422 14.55207,13.71422 8.03689,0 14.55209,-7.01681 14.55209,-13.71422 0.0461,-1.14419 -0.51155,-1.74257 -0.83939,-1.38174 -0.19982,0.22004 -0.40937,0.43522 -0.62833,0.64518 -0.21909,0.20992 -0.44747,0.41451 -0.68477,0.61344 -0.2373,0.19882 -0.48339,0.39187 -0.73786,0.57885 -0.25437,0.18707 -0.51699,0.36796 -0.78745,0.5424 -0.27061,0.1745 -0.54892,0.34243 -0.83448,0.50354 -0.28549,0.16111 -0.57808,0.3153 -0.87729,0.46233 -0.29914,0.14706 -0.60476,0.28688 -0.91634,0.41923 -0.31168,0.13218 -0.62917,0.25683 -0.95194,0.37374 -0.32272,0.11712 -0.65057,0.22645 -0.98302,0.3278 -0.33241,0.10124 -0.66924,0.19445 -1.00994,0.27949 -0.34072,0.085 -0.68513,0.16178 -1.03268,0.23021 -0.34764,0.0684 -0.69823,0.12846 -1.05121,0.18001 -0.35295,0.0516 -0.7081,0.0948 -1.06488,0.12932 -0.35674,0.0347 -0.71493,0.0608 -1.07399,0.0782 -0.35903,0.0172 -0.71873,0.0257 -1.07852,0.0256 -0.35979,1.2e-4 -0.71949,-0.008 -1.07852,-0.0256 -0.35918,-0.0174 -0.71749,-0.0435 -1.07435,-0.0782 -0.35665,-0.0346 -0.71167,-0.0777 -1.06449,-0.12932 -0.35299,-0.0516 -0.70359,-0.11159 -1.05124,-0.18001 -0.34755,-0.0684 -0.69195,-0.14521 -1.03267,-0.23021 -0.3407,-0.085 -0.67752,-0.17825 -1.00993,-0.27949 -0.33258,-0.10134 -0.66056,-0.21067 -0.98341,-0.3278 -0.32265,-0.11692 -0.64001,-0.24156 -0.95157,-0.37374 -0.31171,-0.13235 -0.61744,-0.27217 -0.91671,-0.41923 -0.29908,-0.14704 -0.59154,-0.30123 -0.87691,-0.46233 -0.28555,-0.16111 -0.56386,-0.32904 -0.83447,-0.50354 -0.27047,-0.17444 -0.5331,-0.35533 -0.78747,-0.5424 -0.25447,-0.18698 -0.50055,-0.38003 -0.73784,-0.57885 -0.2373,-0.19893 -0.46568,-0.40352 -0.68478,-0.61344 -0.21909,-0.20996 -0.42877,-0.42513 -0.62871,-0.64518 -0.32784,-0.36084 -0.82954,0.23669 -0.839,1.38174 z" fill="#4d4d4d"/></g><path d="m 117.21039,107.27463 c -1.99399,4.5446 -5.71302,8.10066 -10.09593,9.65355 -4.38291,1.55289 -9.350431,2.348 -14.510311,0.43127" fill="none" stroke="#d99800" stroke-linecap="round" stroke-width="6.615"/><path d="m 147.37291,107.27463 c 1.99399,4.5446 5.71302,8.10066 10.09593,9.65355 4.38291,1.55289 9.35044,2.348 14.51033,0.43127" fill="none" stroke="#d99800" stroke-linecap="round" stroke-width="6.615"/><path d="m 119.06248,167.9227 a 27.622019,19.45203 0 0 1 13.21943,-2.37233 27.622019,19.45203 0 0 1 13.2389,2.3798" fill="none" stroke="#4d4d4d" stroke-linecap="round" stroke-width="6.615"/></svg>