<?xml version="1.0" encoding="UTF-8"?><svg xmlns="http://www.w3.org/2000/svg" xmlns:xlink="http://www.w3.org/1999/xlink" height="179.8" preserveAspectRatio="xMidYMid meet" version="1.0" viewBox="59.9 410.1 880.2 179.8" width="880.2" zoomAndPan="magnify"><g><g id="change1_1"><path d="M 68.007812 500 C 68.007812 546.257812 105.503906 583.753906 151.761719 583.753906 L 852.175781 583.753906 C 898.433594 583.753906 935.929688 546.257812 935.929688 500 C 935.929688 453.742188 898.433594 416.246094 852.175781 416.246094 L 151.761719 416.246094 C 105.503906 416.246094 68.007812 453.742188 68.007812 500" fill="#fff"/></g><g id="change2_1"><path d="M 149.789062 422.40625 C 107.003906 422.40625 72.195312 457.214844 72.195312 500 C 72.195312 542.785156 107.003906 577.59375 149.789062 577.59375 L 850.207031 577.59375 C 892.992188 577.59375 927.804688 542.785156 927.804688 500 C 927.804688 457.214844 892.992188 422.40625 850.207031 422.40625 Z M 850.207031 589.914062 L 149.789062 589.914062 C 100.214844 589.914062 59.878906 549.578125 59.878906 500 C 59.878906 450.421875 100.214844 410.085938 149.789062 410.085938 L 850.207031 410.085938 C 899.785156 410.085938 940.121094 450.421875 940.121094 500 C 940.121094 549.578125 899.785156 589.914062 850.207031 589.914062" fill="#00c0ff"/></g><g id="change2_2"><path d="M 846.386719 446.980469 C 817.394531 446.980469 793.804688 470.566406 793.804688 499.558594 C 793.804688 528.554688 817.394531 552.140625 846.386719 552.140625 C 875.378906 552.140625 898.96875 528.554688 898.96875 499.558594 C 898.96875 470.566406 875.378906 446.980469 846.386719 446.980469" fill="#00c0ff"/></g><g id="change1_2"><path d="M 828.714844 479.003906 L 849.269531 499.558594 L 828.714844 520.117188 L 836.359375 527.761719 L 864.558594 499.558594 L 836.359375 471.359375 L 828.714844 479.003906" fill="#fff"/></g></g></svg>